<svg xmlns="http://www.w3.org/2000/svg" xmlns:xlink="http://www.w3.org/1999/xlink" viewBox="0 0 157.5 40.27"><defs><style>.cls-1{fill:#f15824;}.cls-2{fill:#1a1a18;}.cls-3{fill:url(#linear-gradient);}.cls-4{fill:url(#linear-gradient-2);}.cls-5{fill:url(#linear-gradient-3);}.cls-6{fill:url(#linear-gradient-4);}.cls-7{fill:url(#linear-gradient-5);}</style><linearGradient id="linear-gradient" x1="1" y1="-799.19" x2="157.5" y2="-799.19" gradientTransform="matrix(1, 0, 0, -1, 0, -761.37)" gradientUnits="userSpaceOnUse"><stop offset="0" stop-color="#f15824" stop-opacity="0"/><stop offset="0.04" stop-color="#f15b24" stop-opacity="0.08"/><stop offset="0.26" stop-color="#f16524" stop-opacity="0.49"/><stop offset="0.54" stop-color="#f16824"/><stop offset="0.77" stop-color="#f16524" stop-opacity="0.49"/><stop offset="0.96" stop-color="#f15b24" stop-opacity="0.08"/><stop offset="1" stop-color="#f15824" stop-opacity="0"/></linearGradient><linearGradient id="linear-gradient-2" y1="-792.19" x2="156.5" y2="-792.19" gradientTransform="matrix(1, 0, 0, -1, 0, -761.37)" gradientUnits="userSpaceOnUse"><stop offset="0" stop-color="#f15824" stop-opacity="0"/><stop offset="0.05" stop-color="#f15b24" stop-opacity="0.08"/><stop offset="0.19" stop-color="#f19724" stop-opacity="0.9"/><stop offset="0.54" stop-color="#f16824"/><stop offset="0.89" stop-color="#f17e24" stop-opacity="0.49"/><stop offset="1" stop-color="#f15824" stop-opacity="0"/></linearGradient><linearGradient id="linear-gradient-3" y1="-785.19" y2="-785.19" xlink:href="#linear-gradient"/><linearGradient id="linear-gradient-4" x1="1" y1="-778.19" x2="157.5" y2="-778.19" gradientTransform="matrix(1, 0, 0, -1, 0, -761.37)" gradientUnits="userSpaceOnUse"><stop offset="0" stop-color="#f15824" stop-opacity="0"/><stop offset="0.1" stop-color="#f15e24" stop-opacity="0.06"/><stop offset="0.26" stop-color="#f16524" stop-opacity="0.9"/><stop offset="0.54" stop-color="#f16824"/><stop offset="0.79" stop-color="#f1aa24" stop-opacity="0.9"/><stop offset="0.9" stop-color="#f16524" stop-opacity="0.49"/><stop offset="1" stop-color="#f15824" stop-opacity="0"/></linearGradient><linearGradient id="linear-gradient-5" y1="-771.19" x2="156.5" y2="-771.19" gradientTransform="matrix(1, 0, 0, -1, 0, -761.37)" gradientUnits="userSpaceOnUse"><stop offset="0" stop-color="#f15824" stop-opacity="0"/><stop offset="0.04" stop-color="#f15b24" stop-opacity="0.08"/><stop offset="0.26" stop-color="#f16524" stop-opacity="0.49"/><stop offset="0.54" stop-color="#f16824"/><stop offset="0.79" stop-color="#f17724" stop-opacity="0.9"/><stop offset="0.88" stop-color="#f17e24" stop-opacity="0.49"/><stop offset="0.96" stop-color="#f15b24" stop-opacity="0.08"/><stop offset="1" stop-color="#f15824" stop-opacity="0"/></linearGradient></defs><title>Asset 1</title><g id="Layer_2" data-name="Layer 2"><g id="Layer_1-2" data-name="Layer 1"><g id="Layer_2-2" data-name="Layer 2"><g id="Layer_1-2-2" data-name="Layer 1-2"><g id="Layer_2-2-2" data-name="Layer 2-2"><g id="Layer_1-2-2-2" data-name="Layer 1-2-2"><path id="Line_05_Right" data-name="Line 05 Right" class="cls-1" d="M94.9,40.27h23.2a5.69,5.69,0,0,0,5.6-4.7h-28l-.8,4.7"/><path id="Line_05_Left" data-name="Line 05 Left" class="cls-1" d="M.3,36.67c-.4,2,1.5,3.6,4.2,3.6H60.1c2.7,0,5.1-1.6,5.5-3.6l.2-1.1H.4l-.1,1.1"/><polyline id="Line_04_Right" data-name="Line 04 Right" class="cls-1" points="96.1 33.17 124.1 33.17 124.9 28.57 97 28.57 96.1 33.17"/><polyline id="Line_04_Middle" data-name="Line 04 Middle" class="cls-1" points="50.6 33.17 66.1 33.17 66.9 28.57 51.4 28.57 50.6 33.17"/><polyline id="Line_04_Left" data-name="Line 04 Left" class="cls-1" points="29.6 28.57 1.7 28.57 0.9 33.17 28.8 33.17 29.6 28.57"/><polyline id="Line_03_Right" data-name="Line 03 Right" class="cls-1" points="97.4 26.17 125.3 26.17 126.1 21.47 98.2 21.47 97.4 26.17"/><polyline id="Line_03_Left" data-name="Line 03 Left" class="cls-1" points="30.9 21.47 2.9 21.47 2.1 26.17 30 26.17 30.9 21.47"/><polyline id="Line_02_Right" data-name="Line 02 Right" class="cls-1" points="98.6 19.17 126.5 19.17 127.4 14.47 99.4 14.47 98.6 19.17"/><polyline id="Line_02_Left" data-name="Line 02 Left" class="cls-1" points="32 14.47 4 14.47 3.2 19.17 31.2 19.17 32 14.47"/><polyline id="Line_01_Right" data-name="Line 01 Right" class="cls-1" points="82 7.47 72.1 7.47 71.2 12.07 156.6 12.07 157.4 7.47 82 7.47"/><path id="Line_01_Left" data-name="Line 01 Left" class="cls-1" d="M10.2,7.37C7.5,7.37,5.1,9,4.7,11l-.2,1H69.7l.9-4.6H10.2"/><g id="The_Grand_Tour" data-name="The Grand Tour"><polyline id="T" class="cls-1" points="36.5 18.87 35.3 25.77 34 25.77 35.2 18.87 33 18.87 33.2 17.57 38.9 17.57 38.7 18.87 36.5 18.87"/><path id="h" class="cls-1" d="M39.3,17.27h1.3l-.6,3.3a2.62,2.62,0,0,1,1.8-.9h.4q1.35,0,1.2,1.5l-.8,4.6H41.3l.8-4.5c.1-.3-.1-.4-.3-.4h-.4a3,3,0,0,0-1.6.5l-.7,4.4H37.8l1.5-8.5"/><path id="e" class="cls-1" d="M47.6,19.67q1.35,0,1.2,1.5l-.3,1.9H44.9l-.2,1.2c-.1.3.1.4.3.4h1.5a.66.66,0,0,0,.5-.4l.1-.5h1.3l-.1.5a1.65,1.65,0,0,1-1.7,1.5h-2q-1.35,0-1.2-1.5l.6-3.1a1.65,1.65,0,0,1,1.7-1.5h1.9m-.1,1.5c.1-.3-.1-.4-.3-.4H45.8a.66.66,0,0,0-.5.4v.1l-.2,1h2.2Z"/><path id="G" class="cls-1" d="M55.6,19.27c.1-.3-.1-.4-.3-.4H53.1a.66.66,0,0,0-.5.4l-.8,4.8c-.1.3,0,.4.3.4h2.1a.66.66,0,0,0,.5-.4l.3-1.5H53.4l.2-1.2h3l-.5,2.8a1.75,1.75,0,0,1-1.8,1.6H51.7c-1,0-1.4-.6-1.3-1.6l.9-5a1.83,1.83,0,0,1,1.8-1.6h2.6a1.2,1.2,0,0,1,1.3,1.6l-.1.9H55.6v-.8"/><path id="r" class="cls-1" d="M60,20.87a3,3,0,0,0-1.6.5l-.8,4.4H56.3l1.1-6.1h1.3l-.2.9a2.62,2.62,0,0,1,1.8-.9h.6l-.2,1.2H60"/><path id="a" class="cls-1" d="M63.1,19.67a1.86,1.86,0,0,1,1.5.9l.2-.9h1.3l-1,6.1H63.8l.2-.9a2.62,2.62,0,0,1-1.8.9h-.5q-1.35,0-1.2-1.5l.6-3.1a1.65,1.65,0,0,1,1.7-1.5h.3m-1.5,4.5c-.1.3.1.4.3.4h.5a3,3,0,0,0,1.6-.5l.5-2.8a2.39,2.39,0,0,0-1.4-.5h-.5a.47.47,0,0,0-.5.5h0Z"/><path id="n" class="cls-1" d="M66.6,19.67h1.3l-.2.9a2.62,2.62,0,0,1,1.8-.9h.4q1.35,0,1.2,1.5l-.8,4.6H69l.8-4.5c.1-.3-.1-.4-.3-.4h-.3a3,3,0,0,0-1.6.5l-.8,4.4H65.5l1.1-6.1"/><path id="d" class="cls-1" d="M73.8,19.67a1.86,1.86,0,0,1,1.5.9l.6-3.3h1.3l-1.5,8.5H74.4l.2-.9a2.62,2.62,0,0,1-1.8.9h-.6q-1.35,0-1.2-1.5l.6-3.1a1.65,1.65,0,0,1,1.7-1.5h.5m-1.4,4.5c-.1.3,0,.4.3.4h.5a3,3,0,0,0,1.6-.5l.5-2.8a2.39,2.39,0,0,0-1.4-.5h-.5a.46.46,0,0,0-.5.4Z"/><polyline id="T-2" class="cls-1" points="81.6 18.87 80.4 25.77 79 25.77 80.2 18.87 78 18.87 78.3 17.57 84 17.57 83.7 18.87 81.6 18.87"/><path id="o" class="cls-1" d="M85.7,19.67q1.35,0,1.2,1.5l-.5,3.1a1.65,1.65,0,0,1-1.7,1.5h-2q-1.35,0-1.2-1.5l.6-3.1a1.65,1.65,0,0,1,1.7-1.5h1.9m-.1,1.6c0-.3-.1-.4-.3-.4H83.8a.46.46,0,0,0-.5.4h0l-.5,3c-.1.3.1.4.3.4h1.5a.46.46,0,0,0,.5-.4Z"/><path id="u" class="cls-1" d="M91.5,25.77H90.2l.2-.9a2.62,2.62,0,0,1-1.8.9h-.4q-1.35,0-1.2-1.5l.8-4.6h1.3l-.8,4.5c-.1.3.1.4.3.4H89a3,3,0,0,0,1.6-.5l.8-4.4h1.3l-1.2,6.1"/><path id="r-2" class="cls-1" d="M95.7,20.87a3,3,0,0,0-1.6.5l-.8,4.4H92l1-6.1h1.3l-.2.9a2.62,2.62,0,0,1,1.8-.9h.6l-.2,1.2h-.6"/></g><g id="Prime_Member_Exclusive" data-name="Prime Member Exclusive"><path class="cls-2" d="M38.35,3.92h-.78L38.31.1h1.24a1.34,1.34,0,0,1,.9.28,1,1,0,0,1,.32.78,1.28,1.28,0,0,1-.2.71,1.34,1.34,0,0,1-.57.49,2,2,0,0,1-.87.18h-.51Zm.78-2a.94.94,0,0,0,.62-.19A.65.65,0,0,0,40,1.21a.46.46,0,0,0-.15-.38.73.73,0,0,0-.46-.12H39l-.24,1.21Z"/><path class="cls-2" d="M47.17,3.92h-.79l-.55-1.48h-.51L45,3.92h-.78L45,.1h1.24a1.36,1.36,0,0,1,.91.27,1,1,0,0,1,.32.76,1.17,1.17,0,0,1-.23.73,1.4,1.4,0,0,1-.67.46Zm-1.33-2a.91.91,0,0,0,.6-.18.63.63,0,0,0,.22-.51Q46.66.7,46,.7h-.4l-.23,1.18Z"/><path class="cls-2" d="M51.85,3.92H51L51.79.1h.8Z"/><path class="cls-2" d="M59.89,3.92h-.71l.53-2.71L58.53,3h-.66l-.5-1.79-.54,2.73h-.71L56.87.1h.88l.58,2.15L59.77.1h.86Z"/><path class="cls-2" d="M66.58,3.92H64.14L64.89.1h2.44l-.12.63H65.57l-.18.92h1.34l-.12.63H65.26l-.2,1H66.7Z"/><path class="cls-2" d="M78.79,2.82a2.13,2.13,0,0,1-.74.87A1.93,1.93,0,0,1,76.94,4a1.56,1.56,0,0,1-1.16-.42,1.56,1.56,0,0,1-.42-1.16,2.84,2.84,0,0,1,.26-1.24,2.15,2.15,0,0,1,.74-.88A1.92,1.92,0,0,1,77.47,0a1.56,1.56,0,0,1,1.16.42,1.57,1.57,0,0,1,.42,1.16A2.87,2.87,0,0,1,78.79,2.82Zm-1.18.33a1.5,1.5,0,0,0,.44-.61,2.27,2.27,0,0,0,.17-.9A1.11,1.11,0,0,0,78,.92a.73.73,0,0,0-.6-.25A1,1,0,0,0,77,.78a1.21,1.21,0,0,0-.39.35,1.79,1.79,0,0,0-.27.55,2.4,2.4,0,0,0-.1.71,1.09,1.09,0,0,0,.21.71.73.73,0,0,0,.6.25A1,1,0,0,0,77.61,3.15Z"/><path class="cls-2" d="M85.63,3.92h-.79l-.55-1.48h-.51l-.29,1.48H82.7L83.45.1h1.24a1.36,1.36,0,0,1,.91.27,1,1,0,0,1,.32.76,1.17,1.17,0,0,1-.23.73,1.4,1.4,0,0,1-.67.46Zm-1.33-2a.91.91,0,0,0,.6-.18.62.62,0,0,0,.22-.51q0-.49-.61-.49h-.4l-.23,1.18Z"/><path class="cls-2" d="M90.31,3.92h-.8L90.26.1h.8Z"/><path class="cls-2" d="M97.57,3.69a2.42,2.42,0,0,1-.61.24,2.67,2.67,0,0,1-.68.09,1.64,1.64,0,0,1-1.2-.4,1.57,1.57,0,0,1-.41-1.17A2.6,2.6,0,0,1,95,1.24a2.34,2.34,0,0,1,.81-.9A2.11,2.11,0,0,1,97,0a2.53,2.53,0,0,1,.6.07,1.85,1.85,0,0,1,.49.18l-.12.58a2.66,2.66,0,0,0-1-.19,1.33,1.33,0,0,0-.74.21,1.47,1.47,0,0,0-.52.61,2,2,0,0,0-.19.9,1.19,1.19,0,0,0,.2.77.78.78,0,0,0,.64.25,2.31,2.31,0,0,0,.57-.09l.18-.93h-.7l.12-.6h1.43Z"/><path class="cls-2" d="M102.47,3.92h-.8L102.42.1h.8Z"/><path class="cls-2" d="M109.82,3.92H109l-1-2.71-.52,2.71h-.72L107.5.1h.84l1,2.71L109.85.1h.72Z"/><path class="cls-2" d="M117.11,3.92h-.85L116.17,3h-1.27l-.42.88h-.86l2-3.82h.89Zm-1-1.46L116,.85l-.78,1.61Z"/><path class="cls-2" d="M123.2,3.92h-2.37L121.58.1h.8l-.62,3.17h1.57Z"/></g><polyline id="FlyByLine5" class="cls-3" points="20.5 35.47 2.5 35.47 1 40.17 156 40.17 157.5 35.47 20.5 35.47"/><polyline id="FlyByLine4" class="cls-4" points="19.5 28.47 1.5 28.47 0 33.17 155 33.17 156.5 28.47 19.5 28.47"/><polyline id="FlyByLine3" class="cls-5" points="20.5 21.47 2.5 21.47 1 26.17 156 26.17 157.5 21.47 20.5 21.47"/><polyline id="FlyByLine2" class="cls-6" points="20.5 14.47 2.5 14.47 1 19.17 156 19.17 157.5 14.47 20.5 14.47"/><polyline id="FlyByLine" class="cls-7" points="19.5 7.47 1.5 7.47 0 12.17 155 12.17 156.5 7.47 19.5 7.47"/></g></g></g></g></g></g></svg>